<?xml version="1.0" encoding="UTF-8"?>
<!-- Generated by Pixelmator Pro 3.6.12 -->
<svg width="250" height="250" viewBox="0 0 500 500" xmlns="http://www.w3.org/2000/svg">
    <g id="Background">
        <path id="path1" fill="#ffffff" fill-rule="evenodd" stroke="none" d="M 0 450 C 0 477.614227 22.385763 500 50 500 L 450 500 C 477.614227 500 500 477.614227 500 450 L 500 50 C 500 22.385773 477.614227 0 450 0 L 50 0 C 22.385763 0 0 22.385773 0 50 Z"/>
        <path id="path2" fill="#00c3b7" fill-rule="evenodd" stroke="none" d="M 50 500 C 22.385763 500 0 477.614227 0 450 L 0 50 C 0 22.385773 22.385763 0 50 0 L 450 0 C 477.614227 0 500 22.385773 500 50 L 500 450 C 500 477.614227 477.614227 500 450 500 L 50 500 Z M 20 450 L 20 50 C 20 33.431465 33.431461 20 50 20 L 450 20 C 466.568542 20 480 33.431469 480 50 L 480 450 C 480 466.568542 466.568542 480 450 480 L 50 480 C 33.431461 480 20 466.568542 20 450 Z"/>
    </g>
    <g id="Tree">
        <g id="g1">
            <path id="Path" fill="#3c2415" stroke="none" d="M 240.648224 363.980225 C 202.519089 173.301056 289.479126 61.768066 289.479126 61.768066 C 217.402252 208.823975 279.817963 363.980225 279.817963 363.980225 L 240.648224 363.980225"/>
            <path id="path3" fill="#3c2415" stroke="none" d="M 176.122711 147.391571 C 187.831635 175.577942 198.547699 187.325043 210.352081 197.334656 C 225.7603 210.394409 233.85582 223.454163 233.85582 223.454163 L 232.127884 245.70253 C 215.101517 212.3992 210.065689 210.313263 192.647888 189.105469 C 175.230103 167.897675 176.122711 147.391571 176.122711 147.391571"/>
            <path id="path4" fill="#3c2415" stroke="none" d="M 200.079926 196.637726 C 177.449692 201.511292 143.325348 190.718872 143.325348 190.718872 C 167.69783 204.823975 205.998825 203.25354 205.998825 203.25354 L 200.079926 196.637726"/>
            <path id="path5" fill="#3c2415" stroke="none" d="M 261.245026 146.909454 C 274.261841 127.763733 306.410034 112.030945 306.410034 112.030945 C 279.035156 118.637177 252.39534 146.207794 252.39534 146.207794 L 261.245026 146.909454"/>
            <path id="path6" fill="#3c2415" stroke="none" d="M 276.75827 229.945862 C 292.118774 212.618744 299.474426 177.587494 299.474426 177.587494 C 299.78949 205.749969 282.820374 233.377869 282.820374 233.377869 L 276.75827 229.945862"/>
            <path id="path7" fill="#3c2415" stroke="none" d="M 242.734177 171.997955 C 241.168533 125.50119 198.342438 68.822998 198.342438 68.822998 C 254.925186 130.642059 247.956161 155.019318 247.956161 155.019318 L 242.734177 171.997955"/>
            <path id="path8" fill="#3c2415" stroke="none" d="M 256.834503 272.385315 C 275.226044 243.344543 293.775116 228.814575 312.715576 210.069824 C 331.656036 191.325043 350.329193 160.241302 350.329193 160.241302 C 320.806335 195.339417 297.230957 212.733307 277.388367 229.191681 C 257.545746 245.65004 254.400131 252.666779 254.400131 252.666779 L 256.834503 272.385315"/>
        </g>
        <g id="Dots">
            <path id="path9" fill="#be76d3" stroke="none" d="M 278.772614 221.015015 C 278.772614 227.077118 273.865662 231.988831 267.808319 231.988831 C 261.751007 231.988831 256.834503 227.077118 256.834503 221.015015 C 256.834503 214.957672 261.751007 210.045959 267.808319 210.045959 C 273.865662 210.045959 278.772614 214.957672 278.772614 221.015015"/>
            <path id="path10" fill="#be76d3" stroke="none" d="M 355.288666 148.140991 C 355.288666 154.198303 350.381714 159.110046 344.324402 159.110046 C 338.26709 159.110046 333.355347 154.198303 333.355347 148.140991 C 333.355347 142.083649 338.26709 137.171936 344.324402 137.171936 C 350.381714 137.171936 355.288666 142.083649 355.288666 148.140991"/>
            <path id="path11" fill="#0071ad" stroke="none" d="M 345.36496 102.169281 C 345.36496 108.226593 340.458038 113.138336 334.400696 113.138336 C 328.343384 113.138336 323.431641 108.226593 323.431641 102.169281 C 323.431641 96.111969 328.343384 91.200226 334.400696 91.200226 C 340.458038 91.200226 345.36496 96.111969 345.36496 102.169281"/>
            <path id="path12" fill="#597407" stroke="none" d="M 244.390503 91.023651 C 244.390503 97.085724 239.478775 101.997437 233.421463 101.997437 C 227.364136 101.997437 222.452408 97.085724 222.452408 91.023651 C 222.452408 84.966309 227.364136 80.054596 233.421463 80.054596 C 239.478775 80.054596 244.390503 84.966309 244.390503 91.023651"/>
            <path id="path13" fill="#fd8301" stroke="none" d="M 175.101227 149.88324 C 175.101227 155.940552 170.189499 160.852264 164.132172 160.852264 C 158.07486 160.852264 153.163132 155.940552 153.163132 149.88324 C 153.163132 143.821136 158.07486 138.909424 164.132172 138.909424 C 170.189499 138.909424 175.101227 143.821136 175.101227 149.88324"/>
            <path id="path14" fill="#93cc52" stroke="none" d="M 274.944427 57.066345 C 274.944427 59.328888 273.111481 61.161835 270.853699 61.161835 C 268.591156 61.161835 266.76297 59.328888 266.76297 57.066345 C 266.76297 54.808594 268.591156 52.975647 270.853699 52.975647 C 273.111481 52.975647 274.944427 54.808594 274.944427 57.066345"/>
            <path id="path15" fill="#93cc52" stroke="none" d="M 222.977463 58.197632 C 222.977463 60.121277 221.416595 61.682129 219.49295 61.682129 C 217.569321 61.682129 216.013214 60.121277 216.013214 58.197632 C 216.013214 56.273956 217.569321 54.717896 219.49295 54.717896 C 221.416595 54.717896 222.977463 56.273956 222.977463 58.197632"/>
            <path id="path16" fill="#0071ad" stroke="none" d="M 297.226227 149.448883 C 297.226227 152.814056 294.500641 155.539581 291.135468 155.539581 C 287.770294 155.539581 285.044708 152.814056 285.044708 149.448883 C 285.044708 146.078918 287.770294 143.353363 291.135468 143.353363 C 294.500641 143.353363 297.226227 146.078918 297.226227 149.448883"/>
            <path id="path17" fill="#6a0a78" stroke="none" d="M 322.300385 182.881073 C 322.300385 188.938416 317.388641 193.850128 311.331329 193.850128 C 305.274017 193.850128 300.362274 188.938416 300.362274 182.881073 C 300.362274 176.823761 305.274017 171.912048 311.331329 171.912048 C 317.388641 171.912048 322.300385 176.823761 322.300385 182.881073"/>
            <path id="path18" fill="#be76d3" stroke="none" d="M 294.79184 258.452026 C 294.79184 264.514099 289.880096 269.425842 283.822784 269.425842 C 277.765442 269.425842 272.853729 264.514099 272.853729 258.452026 C 272.853729 252.399475 277.765442 247.487747 283.822784 247.487747 C 289.880096 247.487747 294.79184 252.399475 294.79184 258.452026"/>
            <path id="path19" fill="#2cdaf1" stroke="none" d="M 274.247498 172.608917 C 274.247498 176.694885 270.934845 180.007568 266.848907 180.007568 C 262.762939 180.007568 259.450287 176.694885 259.450287 172.608917 C 259.450287 168.518219 262.762939 165.205536 266.848907 165.205536 C 270.934845 165.205536 274.247498 168.518219 274.247498 172.608917"/>
            <path id="path20" fill="#fd8301" stroke="none" d="M 188.199173 187.888275 C 188.199173 192.814331 184.203918 196.80957 179.277878 196.80957 C 174.351822 196.80957 170.356567 192.814331 170.356567 187.888275 C 170.356567 182.957458 174.351822 178.962219 179.277878 178.962219 C 184.203918 178.962219 188.199173 182.957458 188.199173 187.888275"/>
            <path id="path21" fill="#2cdaf1" stroke="none" d="M 302.973267 68.822998 C 302.973267 72.908966 299.660583 76.221619 295.574646 76.221619 C 291.488678 76.221619 288.176025 72.908966 288.176025 68.822998 C 288.176025 64.732269 291.488678 61.419586 295.574646 61.419586 C 299.660583 61.419586 302.973267 64.732269 302.973267 68.822998"/>
            <path id="path22" fill="#1c286d" stroke="none" d="M 315.899384 115.272003 C 315.899384 117.70163 313.93277 119.668213 311.507904 119.668213 C 309.078308 119.668213 307.106964 117.70163 307.106964 115.272003 C 307.106964 112.842407 309.078308 110.875793 311.507904 110.875793 C 313.93277 110.875793 315.899384 112.842407 315.899384 115.272003"/>
            <path id="path23" fill="#2cdaf1" stroke="none" d="M 335.140564 87.410248 C 335.140564 89.309998 333.598785 90.851807 331.699005 90.851807 C 329.804016 90.851807 328.262207 89.309998 328.262207 87.410248 C 328.262207 85.510468 329.804016 83.97345 331.699005 83.97345 C 333.598785 83.97345 335.140564 85.510468 335.140564 87.410248"/>
            <path id="path24" fill="#597407" stroke="none" d="M 207.874741 66.169037 C 207.874741 68.83252 205.712433 70.999634 203.044144 70.999634 C 200.37587 70.999634 198.208801 68.83252 198.208801 66.169037 C 198.208801 63.496002 200.37587 61.333679 203.044144 61.333679 C 205.712433 61.333679 207.874741 63.496002 207.874741 66.169037"/>
            <path id="path25" fill="#89aa36" stroke="none" d="M 253.139969 131.205322 C 253.139969 133.730377 251.092224 135.778107 248.567139 135.778107 C 246.046844 135.778107 243.999084 133.730377 243.999084 131.205322 C 243.999084 128.680237 246.046844 126.632477 248.567139 126.632477 C 251.092224 126.632477 253.139969 128.680237 253.139969 131.205322"/>
            <path id="path26" fill="#89aa36" stroke="none" d="M 248.786728 55.023376 C 248.786728 57.495941 246.777145 59.505524 244.304596 59.505524 C 241.82724 59.505524 239.822464 57.495941 239.822464 55.023376 C 239.822464 52.546051 241.82724 50.536469 244.304596 50.536469 C 246.777145 50.536469 248.786728 52.546051 248.786728 55.023376"/>
            <path id="path27" fill="#0071ad" stroke="none" d="M 290.963623 136.560944 C 290.963623 140.646881 287.646179 143.959564 283.560242 143.959564 C 279.474274 143.959564 276.166382 140.646881 276.166382 136.560944 C 276.166382 132.475006 279.474274 129.157562 283.560242 129.157562 C 287.646179 129.157562 290.963623 132.475006 290.963623 136.560944"/>
            <path id="path28" fill="#6a0a78" stroke="none" d="M 292.180817 196.289307 C 292.180817 199.368073 289.684387 201.859741 286.605591 201.859741 C 283.531586 201.859741 281.035156 199.368073 281.035156 196.289307 C 281.035156 193.21051 283.531586 190.718872 286.605591 190.718872 C 289.684387 190.718872 292.180817 193.21051 292.180817 196.289307"/>
            <path id="path29" fill="#fec50e" stroke="none" d="M 234.552734 204.823975 C 234.552734 207.89798 232.061066 210.394409 228.982285 210.394409 C 225.903503 210.394409 223.411835 207.89798 223.411835 204.823975 C 223.411835 201.745178 225.903503 199.248749 228.982285 199.248749 C 232.061066 199.248749 234.552734 201.745178 234.552734 204.823975"/>
            <path id="path30" fill="#c40208" stroke="none" d="M 182.671692 253.75032 C 182.671692 258.084473 179.163315 261.592834 174.838699 261.592834 C 170.509308 261.592834 167.005707 258.084473 167.005707 253.75032 C 167.005707 249.425705 170.509308 245.917328 174.838699 245.917328 C 179.163315 245.917328 182.671692 249.425705 182.671692 253.75032"/>
            <path id="path31" fill="#ff6466" stroke="none" d="M 214.705338 275.521362 C 214.705338 278.981995 211.898636 281.788696 208.437988 281.788696 C 204.977325 281.788696 202.170624 278.981995 202.170624 275.521362 C 202.170624 272.06073 204.977325 269.253998 208.437988 269.253998 C 211.898636 269.253998 214.705338 272.06073 214.705338 275.521362"/>
            <path id="path32" fill="#1c286d" stroke="none" d="M 310.98288 82.403046 C 310.98288 85.481842 308.48642 87.978241 305.412415 87.978241 C 302.333649 87.978241 299.84198 85.481842 299.84198 82.403046 C 299.84198 79.329041 302.333649 76.832611 305.412415 76.832611 C 308.48642 76.832611 310.98288 79.329041 310.98288 82.403046"/>
            <path id="path33" fill="#1f2b6d" stroke="none" d="M 367.389008 148.751953 C 367.389008 151.825989 364.897339 154.322388 361.818542 154.322388 C 358.744537 154.322388 356.248108 151.825989 356.248108 148.751953 C 356.248108 145.673187 358.744537 143.176758 361.818542 143.176758 C 364.897339 143.176758 367.389008 145.673187 367.389008 148.751953"/>
            <path id="path34" fill="#ff0605" stroke="none" d="M 369.479706 186.017151 C 369.479706 189.091156 366.983246 191.587585 363.909241 191.587585 C 360.830475 191.587585 358.338806 189.091156 358.338806 186.017151 C 358.338806 182.938354 360.830475 180.441925 363.909241 180.441925 C 366.983246 180.441925 369.479706 182.938354 369.479706 186.017151"/>
            <path id="path35" fill="#00a1ca" stroke="none" d="M 278.863312 121.324585 C 278.863312 124.403351 276.366852 126.89502 273.288086 126.89502 C 270.214081 126.89502 267.717621 124.403351 267.717621 121.324585 C 267.717621 118.245789 270.214081 115.75412 273.288086 115.75412 C 276.366852 115.75412 278.863312 118.245789 278.863312 121.324585"/>
            <path id="path36" fill="#7ba206" stroke="none" d="M 179.884079 88.675171 C 179.884079 92.665649 176.652542 95.901947 172.662079 95.901947 C 168.671585 95.901947 165.435287 92.665649 165.435287 88.675171 C 165.435287 84.684662 168.671585 81.448364 172.662079 81.448364 C 176.652542 81.448364 179.884079 84.684662 179.884079 88.675171"/>
            <path id="path37" fill="#d8c300" stroke="none" d="M 158.819489 114.966522 C 158.819489 118.957001 155.587967 122.193298 151.597488 122.193298 C 147.606995 122.193298 144.370697 118.957001 144.370697 114.966522 C 144.370697 110.976044 147.606995 107.739716 151.597488 107.739716 C 155.587967 107.739716 158.819489 110.976044 158.819489 114.966522"/>
            <path id="path38" fill="#0071ad" stroke="none" d="M 324.300385 124.19809 C 324.300385 127.276886 321.808716 129.768524 318.72995 129.768524 C 315.655945 129.768524 313.159485 127.276886 313.159485 124.19809 C 313.159485 121.119324 315.655945 118.622864 318.72995 118.622864 C 321.808716 118.622864 324.300385 121.119324 324.300385 124.19809"/>
            <path id="path39" fill="#89aa36" stroke="none" d="M 292.877716 162.332001 C 292.877716 164.833221 290.84906 166.861877 288.34787 166.861877 C 285.85141 166.861877 283.822784 164.833221 283.822784 162.332001 C 283.822784 159.830811 285.85141 157.806915 288.34787 157.806915 C 290.84906 157.806915 292.877716 159.830811 292.877716 162.332001"/>
            <path id="path40" fill="#6a0a78" stroke="none" d="M 278.075714 195.940857 C 278.075714 201.998169 273.168762 206.909882 267.11145 206.909882 C 261.054108 206.909882 256.142395 201.998169 256.142395 195.940857 C 256.142395 189.883514 261.054108 184.971802 267.11145 184.971802 C 273.168762 184.971802 278.075714 189.883514 278.075714 195.940857"/>
            <path id="path41" fill="#c40208" stroke="none" d="M 327.173889 260.891174 C 327.173889 262.910278 325.536682 264.552307 323.517578 264.552307 C 321.498474 264.552307 319.861206 262.910278 319.861206 260.891174 C 319.861206 258.87207 321.498474 257.234833 323.517578 257.234833 C 325.536682 257.234833 327.173889 258.87207 327.173889 260.891174"/>
            <path id="path42" fill="#ff6466" stroke="none" d="M 304.018616 275.521362 C 304.018616 277.540466 302.381378 279.177704 300.362274 279.177704 C 298.34317 279.177704 296.705902 277.540466 296.705902 275.521362 C 296.705902 273.502258 298.34317 271.86499 300.362274 271.86499 C 302.381378 271.86499 304.018616 273.502258 304.018616 275.521362"/>
            <path id="path43" fill="#fe0104" stroke="none" d="M 230.199478 277.697998 C 230.199478 281.688477 226.967941 284.924774 222.977463 284.924774 C 218.986984 284.924774 215.750687 281.688477 215.750687 277.697998 C 215.750687 273.70752 218.986984 270.471191 222.977463 270.471191 C 226.967941 270.471191 230.199478 273.70752 230.199478 277.697998"/>
            <path id="path44" fill="#b1c23b" stroke="none" d="M 263.626923 236.342102 C 263.626923 238.361206 261.989655 239.998413 259.970551 239.998413 C 257.951447 239.998413 256.31424 238.361206 256.31424 236.342102 C 256.31424 234.318207 257.951447 232.680939 259.970551 232.680939 C 261.989655 232.680939 263.626923 234.318207 263.626923 236.342102"/>
            <path id="path45" fill="#c30000" stroke="none" d="M 204.958237 248.179886 C 204.958237 250.19899 203.320999 251.836227 201.301895 251.836227 C 199.282791 251.836227 197.645538 250.19899 197.645538 248.179886 C 197.645538 246.160767 199.282791 244.523514 201.301895 244.523514 C 203.320999 244.523514 204.958237 246.160767 204.958237 248.179886"/>
            <path id="path46" fill="#c3d788" stroke="none" d="M 258.576782 114.618073 C 258.576782 120.680176 253.669815 125.591919 247.612488 125.591919 C 241.555161 125.591919 236.643433 120.680176 236.643433 114.618073 C 236.643433 108.56076 241.555161 103.649017 247.612488 103.649017 C 253.669815 103.649017 258.576782 108.56076 258.576782 114.618073"/>
            <path id="path47" fill="#d8c300" stroke="none" d="M 189.115662 152.231689 C 189.115662 154.73291 187.08699 156.761566 184.585785 156.761566 C 182.084579 156.761566 180.060684 154.73291 180.060684 152.231689 C 180.060684 149.730499 182.084579 147.706604 184.585785 147.706604 C 187.08699 147.706604 189.115662 149.730499 189.115662 152.231689"/>
            <path id="path48" fill="#f98206" stroke="none" d="M 168.57135 187.0625 C 168.57135 189.55896 166.542694 191.587585 164.041489 191.587585 C 161.540268 191.587585 159.516403 189.55896 159.516403 187.0625 C 159.516403 184.56131 161.540268 182.532623 164.041489 182.532623 C 166.542694 182.532623 168.57135 184.56131 168.57135 187.0625"/>
            <path id="path49" fill="#c30000" stroke="none" d="M 174.924622 239.387451 C 174.924622 241.554535 173.172806 243.306335 171.005737 243.306335 C 168.84343 243.306335 167.086853 241.554535 167.086853 239.387451 C 167.086853 237.225159 168.84343 235.468567 171.005737 235.468567 C 173.172806 235.468567 174.924622 237.225159 174.924622 239.387451"/>
            <path id="path50" fill="#f98206" stroke="none" d="M 137.931519 171.386993 C 137.931519 173.554047 136.174942 175.305847 134.012634 175.305847 C 131.850327 175.305847 130.09375 173.554047 130.09375 171.386993 C 130.09375 169.22467 131.850327 167.468079 134.012634 167.468079 C 136.174942 167.468079 137.931519 169.22467 137.931519 171.386993"/>
            <path id="path51" fill="#b1c23b" stroke="none" d="M 191.378204 106.436615 C 191.378204 112.493927 186.466476 117.40567 180.409149 117.40567 C 174.351822 117.40567 169.440094 112.493927 169.440094 106.436615 C 169.440094 100.379303 174.351822 95.462799 180.409149 95.462799 C 186.466476 95.462799 191.378204 100.379303 191.378204 106.436615"/>
            <path id="path52" fill="#fd8301" stroke="none" d="M 156.905396 134.646851 C 156.905396 140.413025 152.22757 145.090851 146.461411 145.090851 C 140.690491 145.090851 136.01265 140.413025 136.01265 134.646851 C 136.01265 128.875916 140.690491 124.19809 146.461411 124.19809 C 152.22757 124.19809 156.905396 128.875916 156.905396 134.646851"/>
            <path id="path53" fill="#c3d788" stroke="none" d="M 230.027634 73.348083 C 230.027634 79.410187 225.115906 84.32193 219.058594 84.32193 C 213.001266 84.32193 208.089539 79.410187 208.089539 73.348083 C 208.089539 67.290771 213.001266 62.379028 219.058594 62.379028 C 225.115906 62.379028 230.027634 67.290771 230.027634 73.348083"/>
            <path id="path54" fill="#7ba206" stroke="none" d="M 225.325928 119.844849 C 225.325928 125.902161 220.4142 130.813904 214.356873 130.813904 C 208.299545 130.813904 203.387817 125.902161 203.387817 119.844849 C 203.387817 113.787506 208.299545 108.875793 214.356873 108.875793 C 220.4142 108.875793 225.325928 113.787506 225.325928 119.844849"/>
            <path id="path55" fill="#0b6eac" stroke="none" d="M 285.99939 61.071136 C 285.99939 64.102203 283.545929 66.560455 280.514862 66.560455 C 277.488586 66.560455 275.030365 64.102203 275.030365 61.071136 C 275.030365 58.044891 277.488586 55.586609 280.514862 55.586609 C 283.545929 55.586609 285.99939 58.044891 285.99939 61.071136"/>
            <path id="path56" fill="#597407" stroke="none" d="M 214.27095 60.374237 C 214.27095 62.154694 212.829422 63.596222 211.048981 63.596222 C 209.2733 63.596222 207.831772 62.154694 207.831772 60.374237 C 207.831772 58.598572 209.2733 57.157043 211.048981 57.157043 C 212.829422 57.157043 214.27095 58.598572 214.27095 60.374237"/>
            <path id="path57" fill="#02a4cb" stroke="none" d="M 278.949219 73.090332 C 278.949219 79.147644 274.037506 84.059387 267.980164 84.059387 C 261.922852 84.059387 257.011108 79.147644 257.011108 73.090332 C 257.011108 67.028229 261.922852 62.116486 267.980164 62.116486 C 274.037506 62.116486 278.949219 67.028229 278.949219 73.090332"/>
            <path id="path58" fill="#597407" stroke="none" d="M 214.881943 98.684784 C 214.881943 104.746857 209.970215 109.6586 203.912888 109.6586 C 197.855576 109.6586 192.943832 104.746857 192.943832 98.684784 C 192.943832 92.627472 197.855576 87.715729 203.912888 87.715729 C 209.970215 87.715729 214.881943 92.627472 214.881943 98.684784"/>
            <path id="path59" fill="#fec50e" stroke="none" d="M 185.545212 141.697021 C 185.545212 144.919006 182.934219 147.529999 179.712234 147.529999 C 176.490265 147.529999 173.879272 144.919006 173.879272 141.697021 C 173.879272 138.475037 176.490265 135.864044 179.712234 135.864044 C 182.934219 135.864044 185.545212 138.475037 185.545212 141.697021"/>
            <path id="path60" fill="#d8c300" stroke="none" d="M 214.533493 172.694855 C 214.533493 178.752167 209.621765 183.66391 203.564438 183.66391 C 197.507126 183.66391 192.595398 178.752167 192.595398 172.694855 C 192.595398 166.632782 197.507126 161.721039 203.564438 161.721039 C 209.621765 161.721039 214.533493 166.632782 214.533493 172.694855"/>
            <path id="path61" fill="#2cdaf1" stroke="none" d="M 318.209625 100.078583 C 318.209625 106.140686 313.297913 111.052399 307.24057 111.052399 C 301.183258 111.052399 296.271545 106.140686 296.271545 100.078583 C 296.271545 94.02124 301.183258 89.109528 307.24057 89.109528 C 313.297913 89.109528 318.209625 94.02124 318.209625 100.078583"/>
            <path id="path62" fill="#597407" stroke="none" d="M 234.815262 187.148407 C 234.815262 193.20575 229.903534 198.117462 223.846207 198.117462 C 217.788879 198.117462 212.877151 193.20575 212.877151 187.148407 C 212.877151 181.086304 217.788879 176.174591 223.846207 176.174591 C 229.903534 176.174591 234.815262 181.086304 234.815262 187.148407"/>
            <path id="path63" fill="#ff0605" stroke="none" d="M 185.368607 213.616394 C 185.368607 219.673706 180.461639 224.585449 174.404327 224.585449 C 168.342239 224.585449 163.435272 219.673706 163.435272 213.616394 C 163.435272 207.559082 168.342239 202.647339 174.404327 202.647339 C 180.461639 202.647339 185.368607 207.559082 185.368607 213.616394"/>
            <path id="path64" fill="#be76d3" stroke="none" d="M 316.03302 160.766357 C 316.03302 166.823669 311.121277 171.735413 305.063965 171.735413 C 299.006622 171.735413 294.09491 166.823669 294.09491 160.766357 C 294.09491 154.709045 299.006622 149.792542 305.063965 149.792542 C 311.121277 149.792542 316.03302 154.709045 316.03302 160.766357"/>
            <path id="path65" fill="#1f2b6d" stroke="none" d="M 357.465302 187.931244 C 357.465302 193.988556 352.55835 198.900269 346.501038 198.900269 C 340.443695 198.900269 335.531982 193.988556 335.531982 187.931244 C 335.531982 181.873901 340.443695 176.962189 346.501038 176.962189 C 352.55835 176.962189 357.465302 181.873901 357.465302 187.931244"/>
            <path id="path66" fill="#6a0a78" stroke="none" d="M 352.071472 227.979279 C 352.071472 234.041351 347.159729 238.953064 341.102417 238.953064 C 335.045105 238.953064 330.133362 234.041351 330.133362 227.979279 C 330.133362 221.921936 335.045105 217.010223 341.102417 217.010223 C 347.159729 217.010223 352.071472 221.921936 352.071472 227.979279"/>
            <path id="path67" fill="#ff6466" stroke="none" d="M 281.211761 278.480804 C 281.211761 284.538147 276.300049 289.44986 270.242706 289.44986 C 264.185394 289.44986 259.273651 284.538147 259.273651 278.480804 C 259.273651 272.423492 264.185394 267.51178 270.242706 267.51178 C 276.300049 267.51178 281.211761 272.423492 281.211761 278.480804"/>
            <path id="path68" fill="#fe0104" stroke="none" d="M 168.743195 231.812225 C 168.743195 237.874329 163.831467 242.781281 157.7789 242.781281 C 151.721588 242.781281 146.80986 237.874329 146.80986 231.812225 C 146.80986 225.750122 151.721588 220.838379 157.7789 220.838379 C 163.831467 220.838379 168.743195 225.750122 168.743195 231.812225"/>
            <path id="path69" fill="#ff0605" stroke="none" d="M 204.609802 261.239624 C 204.609802 267.301727 199.698074 272.208679 193.640747 272.208679 C 187.58342 272.208679 182.671692 267.301727 182.671692 261.239624 C 182.671692 255.182312 187.58342 250.270584 193.640747 250.270584 C 199.698074 250.270584 204.609802 255.182312 204.609802 261.239624"/>
            <path id="path70" fill="#bb6bcd" stroke="none" d="M 296.357452 178.876282 C 296.357452 184.933624 291.445709 189.845337 285.388397 189.845337 C 279.331085 189.845337 274.419342 184.933624 274.419342 178.876282 C 274.419342 172.81897 279.331085 167.907227 285.388397 167.907227 C 291.445709 167.907227 296.357452 172.81897 296.357452 178.876282"/>
            <path id="path71" fill="#c40208" stroke="none" d="M 228.982285 257.759888 C 228.982285 263.8172 224.070557 268.728943 218.013229 268.728943 C 211.955917 268.728943 207.044189 263.8172 207.044189 257.759888 C 207.044189 251.6978 211.955917 246.786072 218.013229 246.786072 C 224.070557 246.786072 228.982285 251.6978 228.982285 257.759888"/>
            <path id="path72" fill="#6a0a78" stroke="none" d="M 335.355347 245.220444 C 335.355347 251.277756 330.443634 256.189484 324.386292 256.189484 C 318.333771 256.189484 313.417236 251.277756 313.417236 245.220444 C 313.417236 239.163116 318.333771 234.251373 324.386292 234.251373 C 330.443634 234.251373 335.355347 239.163116 335.355347 245.220444"/>
            <path id="path73" fill="#ff0605" stroke="none" d="M 295.660553 276.476013 C 295.660553 280.084656 292.739288 283.010681 289.135468 283.010681 C 285.526855 283.010681 282.605591 280.084656 282.605591 276.476013 C 282.605591 272.872192 285.526855 269.946136 289.135468 269.946136 C 292.739288 269.946136 295.660553 272.872192 295.660553 276.476013"/>
            <path id="path74" fill="#6a0a78" stroke="none" d="M 343.188354 206.561432 C 343.188354 212.623535 338.281403 217.535278 332.22406 217.535278 C 326.166748 217.535278 321.255035 212.623535 321.255035 206.561432 C 321.255035 200.50412 326.166748 195.592377 332.22406 195.592377 C 338.281403 195.592377 343.188354 200.50412 343.188354 206.561432"/>
            <path id="path75" fill="#0071ad" stroke="none" d="M 352.243317 110.832825 C 352.243317 113.35791 350.200317 115.400879 347.675262 115.400879 C 345.150177 115.400879 343.102417 113.35791 343.102417 110.832825 C 343.102417 108.30777 345.150177 106.26001 347.675262 106.26001 C 350.200317 106.26001 352.243317 108.30777 352.243317 110.832825"/>
            <path id="path76" fill="#0071ad" stroke="none" d="M 299.316925 85.844574 C 299.316925 91.109558 295.049591 95.376892 289.784607 95.376892 C 284.519684 95.376892 280.25235 91.109558 280.25235 85.844574 C 280.25235 80.579651 284.519684 76.312317 289.784607 76.312317 C 295.049591 76.312317 299.316925 80.579651 299.316925 85.844574"/>
            <path id="path77" fill="#ffc517" stroke="none" d="M 179.015335 170.47525 C 179.015335 175.740234 174.748001 180.007568 169.483063 180.007568 C 164.22287 180.007568 159.95076 175.740234 159.95076 170.47525 C 159.95076 165.205536 164.22287 160.938202 169.483063 160.938202 C 174.748001 160.938202 179.015335 165.205536 179.015335 170.47525"/>
            <path id="path78" fill="#1f2b6d" stroke="none" d="M 339.708618 166.685272 C 339.708618 172.747375 334.796875 177.659088 328.739563 177.659088 C 322.68222 177.659088 317.770508 172.747375 317.770508 166.685272 C 317.770508 160.62793 322.68222 155.716217 328.739563 155.716217 C 334.796875 155.716217 339.708618 160.62793 339.708618 166.685272"/>
            <path id="path79" fill="#c40208" stroke="none" d="M 310.114136 240.170258 C 310.114136 246.227585 305.202393 251.139313 299.145081 251.139313 C 293.087769 251.139313 288.176025 246.227585 288.176025 240.170258 C 288.176025 234.112946 293.087769 229.201202 299.145081 229.201202 C 305.202393 229.201202 310.114136 234.112946 310.114136 240.170258"/>
            <path id="path80" fill="#2cdaf1" stroke="none" d="M 312.376678 128.899811 C 312.376678 134.957123 307.464935 139.868866 301.407623 139.868866 C 295.350311 139.868866 290.438568 134.957123 290.438568 128.899811 C 290.438568 122.842468 295.350311 117.930756 301.407623 117.930756 C 307.464935 117.930756 312.376678 122.842468 312.376678 128.899811"/>
            <path id="path81" fill="#0b6eac" stroke="none" d="M 267.980164 93.376862 C 267.980164 99.434174 263.068451 104.345917 257.011108 104.345917 C 250.953796 104.345917 246.046844 99.434174 246.046844 93.376862 C 246.046844 87.314789 250.953796 82.403046 257.011108 82.403046 C 263.068451 82.403046 267.980164 87.314789 267.980164 93.376862"/>
            <path id="path82" fill="#628e34" stroke="none" d="M 201.822189 79.963898 C 201.822189 86.026001 196.910461 90.937714 190.853134 90.937714 C 184.795807 90.937714 179.884079 86.026001 179.884079 79.963898 C 179.884079 73.906555 184.795807 68.994843 190.853134 68.994843 C 196.910461 68.994843 201.822189 73.906555 201.822189 79.963898"/>
            <path id="path83" fill="#ffc31f" stroke="none" d="M 178.843491 126.632477 C 178.843491 132.69458 173.931763 137.606323 167.874451 137.606323 C 161.817123 137.606323 156.905396 132.69458 156.905396 126.632477 C 156.905396 120.575165 161.817123 115.663422 167.874451 115.663422 C 173.931763 115.663422 178.843491 120.575165 178.843491 126.632477"/>
            <path id="path84" fill="#fd8301" stroke="none" d="M 159.864838 179.048126 C 159.864838 185.105469 154.95311 190.021942 148.895798 190.021942 C 142.83847 190.021942 137.926743 185.105469 137.926743 179.048126 C 137.926743 172.990814 142.83847 168.079071 148.895798 168.079071 C 154.95311 168.079071 159.864838 172.990814 159.864838 179.048126"/>
            <path id="path85" fill="#628e34" stroke="none" d="M 211.917725 149.272247 C 211.917725 155.334351 207.010757 160.241302 200.95343 160.241302 C 194.896118 160.241302 189.98439 155.334351 189.98439 149.272247 C 189.98439 143.214935 194.896118 138.303192 200.95343 138.303192 C 207.010757 138.303192 211.917725 143.214935 211.917725 149.272247"/>
            <path id="path86" fill="#c40208" stroke="none" d="M 208.614594 216.141449 C 208.614594 222.198792 203.702866 227.110504 197.645538 227.110504 C 191.588211 227.110504 186.676483 222.198792 186.676483 216.141449 C 186.676483 210.084137 191.588211 205.172394 197.645538 205.172394 C 203.702866 205.172394 208.614594 210.084137 208.614594 216.141449"/>
            <path id="path87" fill="#7ba206" stroke="none" d="M 239.774719 164.074249 C 239.774719 170.131592 234.867767 175.043304 228.81044 175.043304 C 222.753128 175.043304 217.8414 170.131592 217.8414 164.074249 C 217.8414 158.016937 222.753128 153.105194 228.81044 153.105194 C 234.867767 153.105194 239.774719 158.016937 239.774719 164.074249"/>
            <path id="path88" fill="#c40208" stroke="none" d="M 162.824295 207.434937 C 162.824295 213.492279 157.912567 218.403992 151.85524 218.403992 C 145.797928 218.403992 140.8862 213.492279 140.8862 207.434937 C 140.8862 201.377625 145.797928 196.461151 151.85524 196.461151 C 157.912567 196.461151 162.824295 201.377625 162.824295 207.434937"/>
            <path id="path89" fill="#c3d788" stroke="none" d="M 237.163727 58.546082 C 237.163727 62.106964 234.280655 64.990051 230.724533 64.990051 C 227.168427 64.990051 224.280579 62.106964 224.280579 58.546082 C 224.280579 54.98996 227.168427 52.106873 230.724533 52.106873 C 234.280655 52.106873 237.163727 54.98996 237.163727 58.546082"/>
            <path id="path90" fill="#628e34" stroke="none" d="M 264.844116 57.849152 C 264.844116 61.701202 261.727142 64.818207 257.884644 64.818207 C 254.037354 64.818207 250.915604 61.701202 250.915604 57.849152 C 250.915604 54.006683 254.037354 50.884918 257.884644 50.884918 C 261.727142 50.884918 264.844116 54.006683 264.844116 57.849152"/>
            <path id="path91" fill="#00a1ca" stroke="none" d="M 347.107208 125.763733 C 347.107208 131.825806 342.195496 136.737549 336.138153 136.737549 C 330.080841 136.737549 325.169128 131.825806 325.169128 125.763733 C 325.169128 119.706421 330.080841 114.794678 336.138153 114.794678 C 342.195496 114.794678 347.107208 119.706421 347.107208 125.763733"/>
            <path id="path92" fill="#00a1ca" stroke="none" d="M 284.868134 153.973969 C 284.868134 160.036041 279.95639 164.943024 273.899078 164.943024 C 267.841766 164.943024 262.930023 160.036041 262.930023 153.973969 C 262.930023 147.916656 267.841766 143.004913 273.899078 143.004913 C 279.95639 143.004913 284.868134 147.916656 284.868134 153.973969"/>
            <path id="path93" fill="#ffc517" stroke="none" d="M 152.552139 156.933411 C 152.552139 162.995514 147.645187 167.907227 141.583084 167.907227 C 135.525772 167.907227 130.618805 162.995514 130.618805 156.933411 C 130.618805 150.876099 135.525772 145.964355 141.583084 145.964355 C 147.645187 145.964355 152.552139 150.876099 152.552139 156.933411"/>
            <path id="path94" fill="#fe0104" stroke="none" d="M 222.88678 234.948273 C 222.88678 241.005615 217.975037 245.917328 211.917725 245.917328 C 205.865173 245.917328 200.95343 241.005615 200.95343 234.948273 C 200.95343 228.890961 205.865173 223.979218 211.917725 223.979218 C 217.975037 223.979218 222.88678 228.890961 222.88678 234.948273"/>
            <path id="path95" fill="#be76d3" stroke="none" d="M 327.173889 223.802612 C 327.173889 229.859924 322.262177 234.771667 316.204865 234.771667 C 310.147522 234.771667 305.235809 229.859924 305.235809 223.802612 C 305.235809 217.7453 310.147522 212.833557 316.204865 212.833557 C 322.262177 212.833557 327.173889 217.7453 327.173889 223.802612"/>
            <path id="path96" fill="#ff6466" stroke="none" d="M 199.039352 237.559296 C 199.039352 243.616608 194.127625 248.528336 188.070297 248.528336 C 182.012985 248.528336 177.101242 243.616608 177.101242 237.559296 C 177.101242 231.501953 182.012985 226.59024 188.070297 226.59024 C 194.127625 226.59024 199.039352 231.501953 199.039352 237.559296"/>
            <path id="path97" fill="#c40208" stroke="none" d="M 363.212372 209.177216 C 363.212372 214.656982 358.768402 219.100922 353.288666 219.100922 C 347.808899 219.100922 343.36496 214.656982 343.36496 209.177216 C 343.36496 203.692688 347.808899 199.248749 353.288666 199.248749 C 358.768402 199.248749 363.212372 203.692688 363.212372 209.177216"/>
            <path id="path98" fill="#be76d3" stroke="none" d="M 370 168.341583 C 370 174.398926 365.093018 179.310638 359.035706 179.310638 C 352.978394 179.310638 348.06665 174.398926 348.06665 168.341583 C 348.06665 162.27951 352.978394 157.367798 359.035706 157.367798 C 365.093018 157.367798 370 162.27951 370 168.341583"/>
            <path id="path99" fill="#ff0605" stroke="none" d="M 318.467407 261.678772 C 318.467407 267.736084 313.560455 272.647827 307.498352 272.647827 C 301.44101 272.647827 296.534088 267.736084 296.534088 261.678772 C 296.534088 255.616684 301.44101 250.709717 307.498352 250.709717 C 313.560455 250.709717 318.467407 255.616684 318.467407 261.678772"/>
            <path id="path100" fill="#2cdaf1" stroke="none" d="M 295.312103 106.436615 C 295.312103 112.493927 290.405151 117.40567 284.347839 117.40567 C 278.285736 117.40567 273.378784 112.493927 273.378784 106.436615 C 273.378784 100.379303 278.285736 95.462799 284.347839 95.462799 C 290.405151 95.462799 295.312103 100.379303 295.312103 106.436615"/>
            <path id="path101" fill="#00a1ca" stroke="none" d="M 331.87561 143.176758 C 331.87561 149.238831 326.963898 154.150574 320.906555 154.150574 C 314.849243 154.150574 309.9375 149.238831 309.9375 143.176758 C 309.9375 137.119446 314.849243 132.207703 320.906555 132.207703 C 326.963898 132.207703 331.87561 137.119446 331.87561 143.176758"/>
            <path id="path102" fill="#c3d788" stroke="none" d="M 255.79393 71.262177 C 255.79393 77.319489 250.882202 82.231201 244.824875 82.231201 C 238.767548 82.231201 233.85582 77.319489 233.85582 71.262177 C 233.85582 65.200043 238.767548 60.28833 244.824875 60.28833 C 250.882202 60.28833 255.79393 65.200043 255.79393 71.262177"/>
            <path id="path103" fill="#fec50e" stroke="none" d="M 169.268265 101.386475 C 169.268265 105.71109 165.759872 109.219452 161.430481 109.219452 C 157.105865 109.219452 153.597488 105.71109 153.597488 101.386475 C 153.597488 97.057068 157.105865 93.548706 161.430481 93.548706 C 165.759872 93.548706 169.268265 97.057068 169.268265 101.386475"/>
            <path id="path104" fill="#7ba206" stroke="none" d="M 202.170624 127.334137 C 202.170624 133.391479 197.258896 138.303192 191.201584 138.303192 C 185.144257 138.303192 180.232529 133.391479 180.232529 127.334137 C 180.232529 121.272034 185.144257 116.360321 191.201584 116.360321 C 197.258896 116.360321 202.170624 121.272034 202.170624 127.334137"/>
            <path id="path105" fill="#fec50e" stroke="none" d="M 193.989197 162.508636 C 193.989197 165.200775 191.8078 167.382172 189.115662 167.382172 C 186.423508 167.382172 184.237335 165.200775 184.237335 162.508636 C 184.237335 159.816498 186.423508 157.63031 189.115662 157.63031 C 191.8078 157.63031 193.989197 159.816498 193.989197 162.508636"/>
            <path id="path106" fill="#c30000" stroke="none" d="M 143.153503 194.375183 C 143.153503 197.067322 140.967331 199.248749 138.275192 199.248749 C 135.587814 199.248749 133.401642 197.067322 133.401642 194.375183 C 133.401642 191.683044 135.587814 189.496887 138.275192 189.496887 C 140.967331 189.496887 143.153503 191.683044 143.153503 194.375183"/>
            <path id="path107" fill="#ff6466" stroke="none" d="M 166.480637 245.397034 C 166.480637 247.416138 164.843399 249.053391 162.824295 249.053391 C 160.805191 249.053391 159.167938 247.416138 159.167938 245.397034 C 159.167938 243.37793 160.805191 241.735931 162.824295 241.735931 C 164.843399 241.735931 166.480637 243.37793 166.480637 245.397034"/>
            <path id="path108" fill="#597407" stroke="none" d="M 234.901184 140.914215 C 234.901184 146.971527 229.989441 151.88327 223.932129 151.88327 C 217.874802 151.88327 212.963074 146.971527 212.963074 140.914215 C 212.963074 134.856873 217.874802 129.94516 223.932129 129.94516 C 229.989441 129.94516 234.901184 134.856873 234.901184 140.914215"/>
            <path id="path109" fill="#6a0a78" stroke="none" d="M 287.307281 208.131866 C 287.307281 211.592499 284.50058 214.3992 281.035156 214.3992 C 277.574524 214.3992 274.767822 211.592499 274.767822 208.131866 C 274.767822 204.666443 277.574524 201.859741 281.035156 201.859741 C 284.50058 201.859741 287.307281 204.666443 287.307281 208.131866"/>
            <path id="path110" fill="#c40208" stroke="none" d="M 272.944397 262.810059 C 272.944397 264.972351 271.187836 266.728943 269.025513 266.728943 C 266.858429 266.728943 265.106659 264.972351 265.106659 262.810059 C 265.106659 260.642975 266.858429 258.891174 269.025513 258.891174 C 271.187836 258.891174 272.944397 260.642975 272.944397 262.810059"/>
            <path id="path111" fill="#0071ad" stroke="none" d="M 328.219269 84.493774 C 328.219269 89.014069 324.553345 92.679962 320.037842 92.679962 C 315.517487 92.679962 311.851593 89.014069 311.851593 84.493774 C 311.851593 79.973419 315.517487 76.312317 320.037842 76.312317 C 324.553345 76.312317 328.219269 79.973419 328.219269 84.493774"/>
            <path id="path112" fill="#0e1565" stroke="none" d="M 308.371857 199.334656 C 308.371857 202.079315 306.147522 204.298889 303.407623 204.298889 C 300.667755 204.298889 298.448151 202.079315 298.448151 199.334656 C 298.448151 196.594788 300.667755 194.375183 303.407623 194.375183 C 306.147522 194.375183 308.371857 196.594788 308.371857 199.334656"/>
            <path id="path113" fill="#1c286d" stroke="none" d="M 326.653625 112.875824 C 326.653625 115.620453 324.42926 117.840057 321.689362 117.840057 C 318.949524 117.840057 316.729919 115.620453 316.729919 112.875824 C 316.729919 110.135925 318.949524 107.916351 321.689362 107.916351 C 324.42926 107.916351 326.653625 110.135925 326.653625 112.875824"/>
            <path id="path114" fill="#1c286d" stroke="none" d="M 357.990356 120.455811 C 357.990356 123.195709 355.766022 125.415283 353.026123 125.415283 C 350.286224 125.415283 348.06189 123.195709 348.06189 120.455811 C 348.06189 117.711182 350.286224 115.491577 353.026123 115.491577 C 355.766022 115.491577 357.990356 117.711182 357.990356 120.455811"/>
            <path id="path115" fill="#6a0a78" stroke="none" d="M 362.992767 133.99292 C 362.992767 137.668335 360.014252 140.651672 356.334015 140.651672 C 352.6586 140.651672 349.675262 137.668335 349.675262 133.99292 C 349.675262 130.312683 352.6586 127.334137 356.334015 127.334137 C 360.014252 127.334137 362.992767 130.312683 362.992767 133.99292"/>
            <path id="path116" fill="#1c286d" stroke="none" d="M 307.154663 144.484619 C 307.154663 146.742401 305.321716 148.575348 303.059174 148.575348 C 300.801422 148.575348 298.968445 146.742401 298.968445 144.484619 C 298.968445 142.222076 300.801422 140.393921 303.059174 140.393921 C 305.321716 140.393921 307.154663 142.222076 307.154663 144.484619"/>
            <path id="path117" fill="#ff6466" stroke="none" d="M 366.868683 197.072113 C 366.868683 199.334656 365.035736 201.167603 362.777985 201.167603 C 360.515442 201.167603 358.687256 199.334656 358.687256 197.072113 C 358.687256 194.814362 360.515442 192.981415 362.777985 192.981415 C 365.035736 192.981415 366.868683 194.814362 366.868683 197.072113"/>
            <path id="path118" fill="#ff0605" stroke="none" d="M 343.890015 243.917328 C 343.890015 246.175095 342.057068 248.008041 339.794525 248.008041 C 337.536774 248.008041 335.703827 246.175095 335.703827 243.917328 C 335.703827 241.654785 337.536774 239.821838 339.794525 239.821838 C 342.057068 239.821838 343.890015 241.654785 343.890015 243.917328"/>
            <path id="path119" fill="#00a1ca" stroke="none" d="M 315.159485 71.696503 C 315.159485 74.436401 312.939911 76.660767 310.200043 76.660767 C 307.460175 76.660767 305.235809 74.436401 305.235809 71.696503 C 305.235809 68.956665 307.460175 66.7323 310.200043 66.7323 C 312.939911 66.7323 315.159485 68.956665 315.159485 71.696503"/>
        </g>
    </g>
    <text id="Wonder-Dots" xml:space="preserve" x="50.285" y="447" font-family="Marker Felt" font-size="70" font-weight="700" fill="#3c2415" letter-spacing="1.4">Wonder Dots</text>
</svg>
