<?xml version="1.0" encoding="UTF-8"?>
<svg width="250" height="250" viewBox="0 0 250 250" xmlns="http://www.w3.org/2000/svg">
    <g id="Tree">
        <g id="g1">
            <path id="Path" fill="#3c2415" stroke="none" d="M 117.794258 246 C 88.477615 99.390976 155.339279 13.635727 155.339279 13.635727 C 99.920944 126.703773 147.911026 246 147.911026 246 L 117.794258 246"/>
            <path id="path3" fill="#3c2415" stroke="none" d="M 68.182014 79.469757 C 77.184761 101.141617 85.424103 110.173721 94.500221 117.869888 C 106.347275 127.911247 112.571732 137.952606 112.571732 137.952606 L 111.243164 155.058884 C 98.151962 129.452682 94.280037 127.848854 80.887863 111.542648 C 67.495712 95.23645 68.182014 79.469757 68.182014 79.469757"/>
            <path id="path4" fill="#3c2415" stroke="none" d="M 86.602203 117.33403 C 69.202309 121.081207 42.964844 112.783157 42.964844 112.783157 C 61.704311 123.628265 91.153107 122.420792 91.153107 122.420792 L 86.602203 117.33403"/>
            <path id="path5" fill="#3c2415" stroke="none" d="M 133.630692 79.09906 C 143.639038 64.378326 168.357071 52.281754 168.357071 52.281754 C 147.309128 57.36113 126.826363 78.55957 126.826363 78.55957 L 133.630692 79.09906"/>
            <path id="path6" fill="#3c2415" stroke="none" d="M 145.558487 142.943939 C 157.368835 129.62149 163.024429 102.686737 163.024429 102.686737 C 163.266693 124.340248 150.219498 145.582733 150.219498 145.582733 L 145.558487 142.943939"/>
            <path id="path7" fill="#3c2415" stroke="none" d="M 119.398109 98.389053 C 118.194321 62.638718 85.266273 19.060104 85.266273 19.060104 C 128.771515 66.591431 123.41317 85.334549 123.41317 85.334549 L 119.398109 98.389053"/>
            <path id="path8" fill="#3c2415" stroke="none" d="M 130.239532 175.574692 C 144.380402 153.24588 158.642365 142.074097 173.205261 127.661682 C 187.768173 113.249237 202.125549 89.349625 202.125549 89.349625 C 179.426086 116.3358 161.299484 129.709564 146.042969 142.364044 C 130.786407 155.018524 128.367798 160.413544 128.367798 160.413544 L 130.239532 175.574692"/>
        </g>
        <g id="Dots">
            <path id="path9" fill="#be76d3" stroke="none" d="M 147.107269 136.077194 C 147.107269 140.73822 143.334427 144.514725 138.677078 144.514725 C 134.01973 144.514725 130.239532 140.73822 130.239532 136.077194 C 130.239532 131.41983 134.01973 127.643333 138.677078 127.643333 C 143.334427 127.643333 147.107269 131.41983 147.107269 136.077194"/>
            <path id="path10" fill="#be76d3" stroke="none" d="M 205.938782 80.045959 C 205.938782 84.703293 202.165924 88.479843 197.508606 88.479843 C 192.851257 88.479843 189.074738 84.703293 189.074738 80.045959 C 189.074738 75.388596 192.851257 71.612091 197.508606 71.612091 C 202.165924 71.612091 205.938782 75.388596 205.938782 80.045959"/>
            <path id="path11" fill="#0071ad" stroke="none" d="M 198.30867 44.699326 C 198.30867 49.356659 194.535828 53.133194 189.878464 53.133194 C 185.221146 53.133194 181.444611 49.356659 181.444611 44.699326 C 181.444611 40.041992 185.221146 36.265457 189.878464 36.265457 C 194.535828 36.265457 198.30867 40.041992 198.30867 44.699326"/>
            <path id="path12" fill="#597407" stroke="none" d="M 120.671623 36.1297 C 120.671623 40.790695 116.895111 44.5672 112.23777 44.5672 C 107.580421 44.5672 103.803909 40.790695 103.803909 36.1297 C 103.803909 31.472336 107.580421 27.695831 112.23777 27.695831 C 116.895111 27.695831 120.671623 31.472336 120.671623 36.1297"/>
            <path id="path13" fill="#fd8301" stroke="none" d="M 67.396622 81.385544 C 67.396622 86.042877 63.620106 89.819382 58.962765 89.819382 C 54.30542 89.819382 50.528908 86.042877 50.528908 81.385544 C 50.528908 76.724533 54.30542 72.948013 58.962765 72.948013 C 63.620106 72.948013 67.396622 76.724533 67.396622 81.385544"/>
            <path id="path14" fill="#93cc52" stroke="none" d="M 144.163864 10.020676 C 144.163864 11.760284 142.754547 13.169617 141.0186 13.169617 C 139.278976 13.169617 137.873322 11.760284 137.873322 10.020676 C 137.873322 8.284744 139.278976 6.875412 141.0186 6.875412 C 142.754547 6.875412 144.163864 8.284744 144.163864 10.020676"/>
            <path id="path15" fill="#93cc52" stroke="none" d="M 104.207611 10.890488 C 104.207611 12.369553 103.007492 13.569641 101.528435 13.569641 C 100.0494 13.569641 98.852943 12.369553 98.852943 10.890488 C 98.852943 9.411423 100.0494 8.214996 101.528435 8.214996 C 103.007492 8.214996 104.207611 9.411423 104.207611 10.890488"/>
            <path id="path16" fill="#0071ad" stroke="none" d="M 161.295837 81.051575 C 161.295837 83.638992 159.200195 85.734573 156.612808 85.734573 C 154.025391 85.734573 151.929749 83.638992 151.929749 81.051575 C 151.929749 78.46048 154.025391 76.364868 156.612808 76.364868 C 159.200195 76.364868 161.295837 78.46048 161.295837 81.051575"/>
            <path id="path17" fill="#6a0a78" stroke="none" d="M 180.574814 106.756851 C 180.574814 111.414215 176.798294 115.190704 172.140945 115.190704 C 167.483627 115.190704 163.707092 111.414215 163.707092 106.756851 C 163.707092 102.099503 167.483627 98.323013 172.140945 98.323013 C 176.798294 98.323013 180.574814 102.099503 180.574814 106.756851"/>
            <path id="path18" fill="#be76d3" stroke="none" d="M 159.424103 164.861694 C 159.424103 169.522675 155.647568 173.299225 150.990234 173.299225 C 146.33287 173.299225 142.556381 169.522675 142.556381 164.861694 C 142.556381 160.208008 146.33287 156.431488 150.990234 156.431488 C 155.647568 156.431488 159.424103 160.208008 159.424103 164.861694"/>
            <path id="path19" fill="#2cdaf1" stroke="none" d="M 143.628021 98.85881 C 143.628021 102.000412 141.080978 104.54747 137.939392 104.54747 C 134.797791 104.54747 132.250763 102.000412 132.250763 98.85881 C 132.250763 95.713562 134.797791 93.166519 137.939392 93.166519 C 141.080978 93.166519 143.628021 95.713562 143.628021 98.85881"/>
            <path id="path20" fill="#fd8301" stroke="none" d="M 77.467346 110.606781 C 77.467346 114.394318 74.395485 117.466156 70.607964 117.466156 C 66.820419 117.466156 63.748558 114.394318 63.748558 110.606781 C 63.748558 106.815582 66.820419 103.743713 70.607964 103.743713 C 74.395485 103.743713 77.467346 106.815582 77.467346 110.606781"/>
            <path id="path21" fill="#2cdaf1" stroke="none" d="M 165.714615 19.060104 C 165.714615 22.201706 163.167587 24.748749 160.025986 24.748749 C 156.884369 24.748749 154.337341 22.201706 154.337341 19.060104 C 154.337341 15.914841 156.884369 13.367783 160.025986 13.367783 C 163.167587 13.367783 165.714615 15.914841 165.714615 19.060104"/>
            <path id="path22" fill="#1c286d" stroke="none" d="M 175.653229 54.773712 C 175.653229 56.641815 174.141129 58.15387 172.276718 58.15387 C 170.408661 58.15387 168.892929 56.641815 168.892929 54.773712 C 168.892929 52.905655 170.408661 51.39357 172.276718 51.39357 C 174.141129 51.39357 175.653229 52.905655 175.653229 54.773712"/>
            <path id="path23" fill="#2cdaf1" stroke="none" d="M 190.447357 33.35144 C 190.447357 34.812119 189.261902 35.997574 187.801208 35.997574 C 186.344177 35.997574 185.158737 34.812119 185.158737 33.35144 C 185.158737 31.890732 186.344177 30.708939 187.801208 30.708939 C 189.261902 30.708939 190.447357 31.890732 190.447357 33.35144"/>
            <path id="path24" fill="#597407" stroke="none" d="M 92.595451 17.019531 C 92.595451 19.067429 90.932899 20.733673 88.881317 20.733673 C 86.829735 20.733673 85.163528 19.067429 85.163528 17.019531 C 85.163528 14.964294 86.829735 13.301743 88.881317 13.301743 C 90.932899 13.301743 92.595451 14.964294 92.595451 17.019531"/>
            <path id="path25" fill="#89aa36" stroke="none" d="M 127.398895 67.024506 C 127.398895 68.965958 125.82444 70.540405 123.882942 70.540405 C 121.945152 70.540405 120.370659 68.965958 120.370659 67.024506 C 120.370659 65.083008 121.945152 63.50853 123.882942 63.50853 C 125.82444 63.50853 127.398895 65.083008 127.398895 67.024506"/>
            <path id="path26" fill="#89aa36" stroke="none" d="M 124.051773 8.44989 C 124.051773 10.350983 122.50666 11.896103 120.605568 11.896103 C 118.70079 11.896103 117.159355 10.350983 117.159355 8.44989 C 117.159355 6.54512 118.70079 5 120.605568 5 C 122.50666 5 124.051773 6.54512 124.051773 8.44989"/>
            <path id="path27" fill="#0071ad" stroke="none" d="M 156.480667 71.142319 C 156.480667 74.283905 153.929962 76.830963 150.788376 76.830963 C 147.646759 76.830963 145.103394 74.283905 145.103394 71.142319 C 145.103394 68.000732 147.646759 65.450027 150.788376 65.450027 C 153.929962 65.450027 156.480667 68.000732 156.480667 71.142319"/>
            <path id="path28" fill="#6a0a78" stroke="none" d="M 157.416534 117.066147 C 157.416534 119.433334 155.497086 121.349136 153.129868 121.349136 C 150.766342 121.349136 148.846893 119.433334 148.846893 117.066147 C 148.846893 114.698914 150.766342 112.783157 153.129868 112.783157 C 155.497086 112.783157 157.416534 114.698914 157.416534 117.066147"/>
            <path id="path29" fill="#fec50e" stroke="none" d="M 113.107582 123.628265 C 113.107582 125.991791 111.191788 127.911247 108.824577 127.911247 C 106.457382 127.911247 104.541588 125.991791 104.541588 123.628265 C 104.541588 121.261047 106.457382 119.341599 108.824577 119.341599 C 111.191788 119.341599 113.107582 121.261047 113.107582 123.628265"/>
            <path id="path30" fill="#c40208" stroke="none" d="M 73.217384 161.246643 C 73.217384 164.579086 70.519875 167.276581 67.194771 167.276581 C 63.865993 167.276581 61.172161 164.579086 61.172161 161.246643 C 61.172161 157.921555 63.865993 155.224045 67.194771 155.224045 C 70.519875 155.224045 73.217384 157.921555 73.217384 161.246643"/>
            <path id="path31" fill="#ff6466" stroke="none" d="M 97.847359 177.985931 C 97.847359 180.646729 95.689339 182.804749 93.028526 182.804749 C 90.367691 182.804749 88.209694 180.646729 88.209694 177.985931 C 88.209694 175.325134 90.367691 173.167084 93.028526 173.167084 C 95.689339 173.167084 97.847359 175.325134 97.847359 177.985931"/>
            <path id="path32" fill="#1c286d" stroke="none" d="M 171.873047 29.501511 C 171.873047 31.868713 169.953568 33.788162 167.590012 33.788162 C 165.222824 33.788162 163.307053 31.868713 163.307053 29.501511 C 163.307053 27.137985 165.222824 25.218521 167.590012 25.218521 C 169.953568 25.218521 171.873047 27.137985 171.873047 29.501511"/>
            <path id="path33" fill="#1f2b6d" stroke="none" d="M 215.242477 80.515717 C 215.242477 82.879272 213.326675 84.798706 210.959473 84.798706 C 208.595917 84.798706 206.676468 82.879272 206.676468 80.515717 C 206.676468 78.148529 208.595917 76.22908 210.959473 76.22908 C 213.326675 76.22908 215.242477 78.148529 215.242477 80.515717"/>
            <path id="path34" fill="#ff0605" stroke="none" d="M 216.84996 109.168106 C 216.84996 111.531647 214.930496 113.451111 212.56694 113.451111 C 210.199753 113.451111 208.283981 111.531647 208.283981 109.168106 C 208.283981 106.800888 210.199753 104.881439 212.56694 104.881439 C 214.930496 104.881439 216.84996 106.800888 216.84996 109.168106"/>
            <path id="path35" fill="#00a1ca" stroke="none" d="M 147.177002 59.427414 C 147.177002 61.794617 145.257523 63.710403 142.890335 63.710403 C 140.52681 63.710403 138.60733 61.794617 138.60733 59.427414 C 138.60733 57.060211 140.52681 55.144409 142.890335 55.144409 C 145.257523 55.144409 147.177002 57.060211 147.177002 59.427414"/>
            <path id="path36" fill="#7ba206" stroke="none" d="M 71.074059 34.324005 C 71.074059 37.392197 68.589394 39.880524 65.521217 39.880524 C 62.453011 39.880524 59.964699 37.392197 59.964699 34.324005 C 59.964699 31.255798 62.453011 28.767471 65.521217 28.767471 C 68.589394 28.767471 71.074059 31.255798 71.074059 34.324005"/>
            <path id="path37" fill="#d8c300" stroke="none" d="M 54.877949 54.538849 C 54.877949 57.60704 52.393307 60.095367 49.325115 60.095367 C 46.256912 60.095367 43.7686 57.60704 43.7686 54.538849 C 43.7686 51.470657 46.256912 48.982315 49.325115 48.982315 C 52.393307 48.982315 54.877949 51.470657 54.877949 54.538849"/>
            <path id="path38" fill="#0071ad" stroke="none" d="M 182.112579 61.636795 C 182.112579 64.004013 180.196777 65.919785 177.82959 65.919785 C 175.466064 65.919785 173.54657 64.004013 173.54657 61.636795 C 173.54657 59.269608 175.466064 57.350113 177.82959 57.350113 C 180.196777 57.350113 182.112579 59.269608 182.112579 61.636795"/>
            <path id="path39" fill="#89aa36" stroke="none" d="M 157.952362 90.957123 C 157.952362 92.880264 156.392593 94.440033 154.469482 94.440033 C 152.550003 94.440033 150.990234 92.880264 150.990234 90.957123 C 150.990234 89.034012 152.550003 87.477875 154.469482 87.477875 C 156.392593 87.477875 157.952362 89.034012 157.952362 90.957123"/>
            <path id="path40" fill="#6a0a78" stroke="none" d="M 146.571442 116.798233 C 146.571442 121.455566 142.798584 125.232079 138.141266 125.232079 C 133.483902 125.232079 129.707382 121.455566 129.707382 116.798233 C 129.707382 112.140869 133.483902 108.364365 138.141266 108.364365 C 142.798584 108.364365 146.571442 112.140869 146.571442 116.798233"/>
            <path id="path41" fill="#c40208" stroke="none" d="M 184.32193 166.737091 C 184.32193 168.289551 183.063126 169.552063 181.510696 169.552063 C 179.958252 169.552063 178.699387 168.289551 178.699387 166.737091 C 178.699387 165.184662 179.958252 163.925812 181.510696 163.925812 C 183.063126 163.925812 184.32193 165.184662 184.32193 166.737091"/>
            <path id="path42" fill="#ff6466" stroke="none" d="M 166.518356 177.985931 C 166.518356 179.538376 165.259521 180.797211 163.707092 180.797211 C 162.154633 180.797211 160.895782 179.538376 160.895782 177.985931 C 160.895782 176.433487 162.154633 175.174622 163.707092 175.174622 C 165.259521 175.174622 166.518356 176.433487 166.518356 177.985931"/>
            <path id="path43" fill="#fe0104" stroke="none" d="M 109.76046 179.659485 C 109.76046 182.727692 107.275803 185.216003 104.207611 185.216003 C 101.13942 185.216003 98.651093 182.727692 98.651093 179.659485 C 98.651093 176.591309 101.13942 174.102966 104.207611 174.102966 C 107.275803 174.102966 109.76046 176.591309 109.76046 179.659485"/>
            <path id="path44" fill="#b1c23b" stroke="none" d="M 135.462082 147.861847 C 135.462082 149.414307 134.203217 150.673111 132.650787 150.673111 C 131.098328 150.673111 129.839523 149.414307 129.839523 147.861847 C 129.839523 146.305725 131.098328 145.046875 132.650787 145.046875 C 134.203217 145.046875 135.462082 146.305725 135.462082 147.861847"/>
            <path id="path45" fill="#c30000" stroke="none" d="M 90.353012 156.963669 C 90.353012 158.516113 89.094185 159.774948 87.54174 159.774948 C 85.989296 159.774948 84.730446 158.516113 84.730446 156.963669 C 84.730446 155.411209 85.989296 154.152359 87.54174 154.152359 C 89.094185 154.152359 90.353012 155.411209 90.353012 156.963669"/>
            <path id="path46" fill="#c3d788" stroke="none" d="M 131.579147 54.27092 C 131.579147 58.931946 127.80629 62.708481 123.148949 62.708481 C 118.491585 62.708481 114.715073 58.931946 114.715073 54.27092 C 114.715073 49.613602 118.491585 45.837067 123.148949 45.837067 C 127.80629 45.837067 131.579147 49.613602 131.579147 54.27092"/>
            <path id="path47" fill="#d8c300" stroke="none" d="M 78.172012 83.191208 C 78.172012 85.114349 76.612213 86.674133 74.689095 86.674133 C 72.765968 86.674133 71.209839 85.114349 71.209839 83.191208 C 71.209839 81.268097 72.765968 79.71196 74.689095 79.71196 C 76.612213 79.71196 78.172012 81.268097 78.172012 83.191208"/>
            <path id="path48" fill="#f98206" stroke="none" d="M 62.375946 109.971863 C 62.375946 111.891327 60.816162 113.451111 58.893036 113.451111 C 56.969902 113.451111 55.413799 111.891327 55.413799 109.971863 C 55.413799 108.048737 56.969902 106.488922 58.893036 106.488922 C 60.816162 106.488922 62.375946 108.048737 62.375946 109.971863"/>
            <path id="path49" fill="#c30000" stroke="none" d="M 67.260834 150.203369 C 67.260834 151.869583 65.913902 153.216492 64.247688 153.216492 C 62.585144 153.216492 61.234547 151.869583 61.234547 150.203369 C 61.234547 148.540817 62.585144 147.190216 64.247688 147.190216 C 65.913902 147.190216 67.260834 148.540817 67.260834 150.203369"/>
            <path id="path50" fill="#f98206" stroke="none" d="M 38.817654 97.919296 C 38.817654 99.58551 37.467056 100.932434 35.804508 100.932434 C 34.14196 100.932434 32.791367 99.58551 32.791367 97.919296 C 32.791367 96.256729 34.14196 94.906128 35.804508 94.906128 C 37.467056 94.906128 38.817654 96.256729 38.817654 97.919296"/>
            <path id="path51" fill="#b1c23b" stroke="none" d="M 79.911629 47.980392 C 79.911629 52.637711 76.135117 56.414246 71.477776 56.414246 C 66.820419 56.414246 63.0439 52.637711 63.0439 47.980392 C 63.0439 43.323044 66.820419 39.542862 71.477776 39.542862 C 76.135117 39.542862 79.911629 43.323044 79.911629 47.980392"/>
            <path id="path52" fill="#fd8301" stroke="none" d="M 53.40625 69.670624 C 53.40625 74.104111 49.809566 77.700775 45.376102 77.700775 C 40.938965 77.700775 37.342274 74.104111 37.342274 69.670624 C 37.342274 65.233475 40.938965 61.636795 45.376102 61.636795 C 49.809566 61.636795 53.40625 65.233475 53.40625 69.670624"/>
            <path id="path53" fill="#c3d788" stroke="none" d="M 109.628334 22.539352 C 109.628334 27.200363 105.851822 30.976883 101.194473 30.976883 C 96.537132 30.976883 92.76062 27.200363 92.76062 22.539352 C 92.76062 17.882004 96.537132 14.105484 101.194473 14.105484 C 105.851822 14.105484 109.628334 17.882004 109.628334 22.539352"/>
            <path id="path54" fill="#7ba206" stroke="none" d="M 106.01329 58.289688 C 106.01329 62.947006 102.236778 66.723557 97.579437 66.723557 C 92.922073 66.723557 89.145561 62.947006 89.145561 58.289688 C 89.145561 53.632324 92.922073 49.855804 97.579437 49.855804 C 102.236778 49.855804 106.01329 53.632324 106.01329 58.289688"/>
            <path id="path55" fill="#0b6eac" stroke="none" d="M 152.663773 13.099869 C 152.663773 15.430389 150.777359 17.32048 148.446854 17.32048 C 146.119995 17.32048 144.22995 15.430389 144.22995 13.099869 C 144.22995 10.773056 146.119995 8.88295 148.446854 8.88295 C 150.777359 8.88295 152.663773 10.773056 152.663773 13.099869"/>
            <path id="path56" fill="#597407" stroke="none" d="M 97.513359 12.564041 C 97.513359 13.932983 96.404999 15.041351 95.036057 15.041351 C 93.670769 15.041351 92.562408 13.932983 92.562408 12.564041 C 92.562408 11.198776 93.670769 10.090393 95.036057 10.090393 C 96.404999 10.090393 97.513359 11.198776 97.513359 12.564041"/>
            <path id="path57" fill="#02a4cb" stroke="none" d="M 147.243057 22.341171 C 147.243057 26.998505 143.466553 30.775024 138.809204 30.775024 C 134.151855 30.775024 130.375336 26.998505 130.375336 22.341171 C 130.375336 17.680145 134.151855 13.90361 138.809204 13.90361 C 143.466553 13.90361 147.243057 17.680145 147.243057 22.341171"/>
            <path id="path58" fill="#597407" stroke="none" d="M 97.983131 42.020187 C 97.983131 46.681168 94.206619 50.457703 89.549278 50.457703 C 84.891945 50.457703 81.11541 46.681168 81.11541 42.020187 C 81.11541 37.362839 84.891945 33.586304 89.549278 33.586304 C 94.206619 33.586304 97.983131 37.362839 97.983131 42.020187"/>
            <path id="path59" fill="#fec50e" stroke="none" d="M 75.426773 75.091339 C 75.426773 77.568649 73.419235 79.576187 70.941925 79.576187 C 68.464622 79.576187 66.457092 77.568649 66.457092 75.091339 C 66.457092 72.614029 68.464622 70.606491 70.941925 70.606491 C 73.419235 70.606491 75.426773 72.614029 75.426773 75.091339"/>
            <path id="path60" fill="#d8c300" stroke="none" d="M 97.715225 98.924881 C 97.715225 103.58223 93.938713 107.358765 89.281364 107.358765 C 84.624031 107.358765 80.847504 103.58223 80.847504 98.924881 C 80.847504 94.263901 84.624031 90.487366 89.281364 90.487366 C 93.938713 90.487366 97.715225 94.263901 97.715225 98.924881"/>
            <path id="path61" fill="#2cdaf1" stroke="none" d="M 177.42952 43.091843 C 177.42952 47.752838 173.653 51.529358 168.995667 51.529358 C 164.338318 51.529358 160.561798 47.752838 160.561798 43.091843 C 160.561798 38.434479 164.338318 34.657974 168.995667 34.657974 C 173.653 34.657974 177.42952 38.434479 177.42952 43.091843"/>
            <path id="path62" fill="#597407" stroke="none" d="M 113.309425 110.037918 C 113.309425 114.695282 109.532913 118.471771 104.875572 118.471771 C 100.218208 118.471771 96.441696 114.695282 96.441696 110.037918 C 96.441696 105.376892 100.218208 101.600372 104.875572 101.600372 C 109.532913 101.600372 113.309425 105.376892 113.309425 110.037918"/>
            <path id="path63" fill="#ff0605" stroke="none" d="M 75.290985 130.38855 C 75.290985 135.045898 71.518135 138.822418 66.860786 138.822418 C 62.199783 138.822418 58.426933 135.045898 58.426933 130.38855 C 58.426933 125.731224 62.199783 121.954697 66.860786 121.954697 C 71.518135 121.954697 75.290985 125.731224 75.290985 130.38855"/>
            <path id="path64" fill="#be76d3" stroke="none" d="M 175.755966 89.753326 C 175.755966 94.410675 171.979462 98.18718 167.322113 98.18718 C 162.664749 98.18718 158.88826 94.410675 158.88826 89.753326 C 158.88826 85.095993 162.664749 81.315796 167.322113 81.315796 C 171.979462 81.315796 175.755966 85.095993 175.755966 89.753326"/>
            <path id="path65" fill="#1f2b6d" stroke="none" d="M 207.61235 110.639816 C 207.61235 115.29715 203.839493 119.073654 199.182159 119.073654 C 194.524811 119.073654 190.748306 115.29715 190.748306 110.639816 C 190.748306 105.982452 194.524811 102.205948 199.182159 102.205948 C 203.839493 102.205948 207.61235 105.982452 207.61235 110.639816"/>
            <path id="path66" fill="#6a0a78" stroke="none" d="M 203.465164 141.431854 C 203.465164 146.092865 199.688614 149.86937 195.031281 149.86937 C 190.373962 149.86937 186.597412 146.092865 186.597412 141.431854 C 186.597412 136.774506 190.373962 132.998016 195.031281 132.998016 C 199.688614 132.998016 203.465164 136.774506 203.465164 141.431854"/>
            <path id="path67" fill="#ff6466" stroke="none" d="M 148.982681 180.261383 C 148.982681 184.918732 145.206177 188.695236 140.548813 188.695236 C 135.891479 188.695236 132.11496 184.918732 132.11496 180.261383 C 132.11496 175.604034 135.891479 171.827545 140.548813 171.827545 C 145.206177 171.827545 148.982681 175.604034 148.982681 180.261383"/>
            <path id="path68" fill="#fe0104" stroke="none" d="M 62.508068 144.378937 C 62.508068 149.039948 58.731556 152.812805 54.077873 152.812805 C 49.420528 152.812805 45.644016 149.039948 45.644016 144.378937 C 45.644016 139.717926 49.420528 135.941376 54.077873 135.941376 C 58.731556 135.941376 62.508068 139.717926 62.508068 144.378937"/>
            <path id="path69" fill="#ff0605" stroke="none" d="M 90.085121 167.005005 C 90.085121 171.666046 86.308594 175.438873 81.651253 175.438873 C 76.993912 175.438873 73.217384 171.666046 73.217384 167.005005 C 73.217384 162.347687 76.993912 158.571167 81.651253 158.571167 C 86.308594 158.571167 90.085121 162.347687 90.085121 167.005005"/>
            <path id="path70" fill="#bb6bcd" stroke="none" d="M 160.627869 103.677643 C 160.627869 108.335007 156.851334 112.111511 152.194 112.111511 C 147.536667 112.111511 143.760132 108.335007 143.760132 103.677643 C 143.760132 99.020325 147.536667 95.24379 152.194 95.24379 C 156.851334 95.24379 160.627869 99.020325 160.627869 103.677643"/>
            <path id="path71" fill="#c40208" stroke="none" d="M 108.824577 164.329529 C 108.824577 168.986847 105.048065 172.763397 100.390717 172.763397 C 95.733376 172.763397 91.956863 168.986847 91.956863 164.329529 C 91.956863 159.668518 95.733376 155.891998 100.390717 155.891998 C 105.048065 155.891998 108.824577 159.668518 108.824577 164.329529"/>
            <path id="path72" fill="#6a0a78" stroke="none" d="M 190.612488 154.688217 C 190.612488 159.345551 186.835983 163.12207 182.178619 163.12207 C 177.524963 163.12207 173.744751 159.345551 173.744751 154.688217 C 173.744751 150.030869 177.524963 146.254333 182.178619 146.254333 C 186.835983 146.254333 190.612488 150.030869 190.612488 154.688217"/>
            <path id="path73" fill="#ff0605" stroke="none" d="M 160.092026 178.71994 C 160.092026 181.494537 157.845932 183.744293 155.075043 183.744293 C 152.300461 183.744293 150.054367 181.494537 150.054367 178.71994 C 150.054367 175.949036 152.300461 173.699265 155.075043 173.699265 C 157.845932 173.699265 160.092026 175.949036 160.092026 178.71994"/>
            <path id="path74" fill="#6a0a78" stroke="none" d="M 196.635117 124.964149 C 196.635117 129.625183 192.862259 133.401703 188.204926 133.401703 C 183.547577 133.401703 179.771072 129.625183 179.771072 124.964149 C 179.771072 120.306824 183.547577 116.530289 188.204926 116.530289 C 192.862259 116.530289 196.635117 120.306824 196.635117 124.964149"/>
            <path id="path75" fill="#0071ad" stroke="none" d="M 203.597275 51.360519 C 203.597275 53.302017 202.026459 54.872818 200.085007 54.872818 C 198.143509 54.872818 196.569046 53.302017 196.569046 51.360519 C 196.569046 49.419067 198.143509 47.844604 200.085007 47.844604 C 202.026459 47.844604 203.597275 49.419067 203.597275 51.360519"/>
            <path id="path76" fill="#0071ad" stroke="none" d="M 162.903336 32.147629 C 162.903336 36.195755 159.622269 39.476822 155.574158 39.476822 C 151.526062 39.476822 148.244995 36.195755 148.244995 32.147629 C 148.244995 28.099533 151.526062 24.818466 155.574158 24.818466 C 159.622269 24.818466 162.903336 28.099533 162.903336 32.147629"/>
            <path id="path77" fill="#ffc517" stroke="none" d="M 70.40609 97.218277 C 70.40609 101.266418 67.125031 104.54747 63.076935 104.54747 C 59.032497 104.54747 55.747761 101.266418 55.747761 97.218277 C 55.747761 93.166519 59.032497 89.885468 63.076935 89.885468 C 67.125031 89.885468 70.40609 93.166519 70.40609 97.218277"/>
            <path id="path78" fill="#1f2b6d" stroke="none" d="M 193.959625 94.30426 C 193.959625 98.965256 190.18309 102.741776 185.525742 102.741776 C 180.868408 102.741776 177.091888 98.965256 177.091888 94.30426 C 177.091888 89.646896 180.868408 85.870377 185.525742 85.870377 C 190.18309 85.870377 193.959625 89.646896 193.959625 94.30426"/>
            <path id="path79" fill="#c40208" stroke="none" d="M 171.205078 150.805237 C 171.205078 155.462585 167.428543 159.239105 162.77121 159.239105 C 158.113876 159.239105 154.337341 155.462585 154.337341 150.805237 C 154.337341 146.147903 158.113876 142.371368 162.77121 142.371368 C 167.428543 142.371368 171.205078 146.147903 171.205078 150.805237"/>
            <path id="path80" fill="#2cdaf1" stroke="none" d="M 172.944702 65.251846 C 172.944702 69.90918 169.168167 73.685715 164.510834 73.685715 C 159.8535 73.685715 156.076965 69.90918 156.076965 65.251846 C 156.076965 60.594498 159.8535 56.817978 164.510834 56.817978 C 169.168167 56.817978 172.944702 60.594498 172.944702 65.251846"/>
            <path id="path81" fill="#0b6eac" stroke="none" d="M 138.809204 37.939026 C 138.809204 42.596375 135.032684 46.372894 130.375336 46.372894 C 125.718002 46.372894 121.945152 42.596375 121.945152 37.939026 C 121.945152 33.278046 125.718002 29.501511 130.375336 29.501511 C 135.032684 29.501511 138.809204 33.278046 138.809204 37.939026"/>
            <path id="path82" fill="#628e34" stroke="none" d="M 87.941788 27.626099 C 87.941788 32.287109 84.16526 36.063629 79.507919 36.063629 C 74.850571 36.063629 71.074059 32.287109 71.074059 27.626099 C 71.074059 22.968735 74.850571 19.19223 79.507919 19.19223 C 84.16526 19.19223 87.941788 22.968735 87.941788 27.626099"/>
            <path id="path83" fill="#ffc31f" stroke="none" d="M 70.273972 63.50853 C 70.273972 68.169556 66.497452 71.946091 61.840115 71.946091 C 57.18277 71.946091 53.40625 68.169556 53.40625 63.50853 C 53.40625 58.851212 57.18277 55.074677 61.840115 55.074677 C 66.497452 55.074677 70.273972 58.851212 70.273972 63.50853"/>
            <path id="path84" fill="#fd8301" stroke="none" d="M 55.681705 103.809769 C 55.681705 108.467133 51.905182 112.247314 47.247849 112.247314 C 42.590504 112.247314 38.813984 108.467133 38.813984 103.809769 C 38.813984 99.152451 42.590504 95.375916 47.247849 95.375916 C 51.905182 95.375916 55.681705 99.152451 55.681705 103.809769"/>
            <path id="path85" fill="#628e34" stroke="none" d="M 95.704018 80.915756 C 95.704018 85.576782 91.931168 89.349625 87.273811 89.349625 C 82.616478 89.349625 78.839958 85.576782 78.839958 80.915756 C 78.839958 76.258438 82.616478 72.481903 87.273811 72.481903 C 91.931168 72.481903 95.704018 76.258438 95.704018 80.915756"/>
            <path id="path86" fill="#c40208" stroke="none" d="M 93.164314 132.330017 C 93.164314 136.987366 89.387794 140.763885 84.730446 140.763885 C 80.073097 140.763885 76.296585 136.987366 76.296585 132.330017 C 76.296585 127.672684 80.073097 123.896149 84.730446 123.896149 C 89.387794 123.896149 93.164314 127.672684 93.164314 132.330017"/>
            <path id="path87" fill="#7ba206" stroke="none" d="M 117.122635 92.296692 C 117.122635 96.954056 113.349808 100.73056 108.692459 100.73056 C 104.035118 100.73056 100.258606 96.954056 100.258606 92.296692 C 100.258606 87.639374 104.035118 83.862839 108.692459 83.862839 C 113.349808 83.862839 117.122635 87.639374 117.122635 92.296692"/>
            <path id="path88" fill="#c40208" stroke="none" d="M 57.957157 125.635773 C 57.957157 130.293137 54.180645 134.069641 49.523293 134.069641 C 44.865959 134.069641 41.089447 130.293137 41.089447 125.635773 C 41.089447 120.978439 44.865959 117.198273 49.523293 117.198273 C 54.180645 117.198273 57.957157 120.978439 57.957157 125.635773"/>
            <path id="path89" fill="#c3d788" stroke="none" d="M 115.115112 11.158417 C 115.115112 13.896286 112.898392 16.113022 110.164162 16.113022 C 107.429955 16.113022 105.209534 13.896286 105.209534 11.158417 C 105.209534 8.424194 107.429955 6.207458 110.164162 6.207458 C 112.898392 6.207458 115.115112 8.424194 115.115112 11.158417"/>
            <path id="path90" fill="#628e34" stroke="none" d="M 136.397949 10.622559 C 136.397949 13.584305 134.001389 15.980911 131.046967 15.980911 C 128.088867 15.980911 125.688629 13.584305 125.688629 10.622559 C 125.688629 7.668167 128.088867 5.267899 131.046967 5.267899 C 134.001389 5.267899 136.397949 7.668167 136.397949 10.622559"/>
            <path id="path91" fill="#00a1ca" stroke="none" d="M 199.648239 62.840576 C 199.648239 67.501572 195.871735 71.278107 191.214371 71.278107 C 186.557037 71.278107 182.780533 67.501572 182.780533 62.840576 C 182.780533 58.183243 186.557037 54.406723 191.214371 54.406723 C 195.871735 54.406723 199.648239 58.183243 199.648239 62.840576"/>
            <path id="path92" fill="#00a1ca" stroke="none" d="M 151.793991 84.530823 C 151.793991 89.191803 148.017456 92.964676 143.360107 92.964676 C 138.702789 92.964676 134.926254 89.191803 134.926254 84.530823 C 134.926254 79.873474 138.702789 76.096939 143.360107 76.096939 C 148.017456 76.096939 151.793991 79.873474 151.793991 84.530823"/>
            <path id="path93" fill="#ffc517" stroke="none" d="M 50.059124 86.806259 C 50.059124 91.46727 46.286282 95.24379 41.625259 95.24379 C 36.967926 95.24379 33.195065 91.46727 33.195065 86.806259 C 33.195065 82.148926 36.967926 78.372391 41.625259 78.372391 C 46.286282 78.372391 50.059124 82.148926 50.059124 86.806259"/>
            <path id="path94" fill="#fe0104" stroke="none" d="M 104.137871 146.790161 C 104.137871 151.44754 100.361359 155.224045 95.704018 155.224045 C 91.050354 155.224045 87.273811 151.44754 87.273811 146.790161 C 87.273811 142.132843 91.050354 138.356323 95.704018 138.356323 C 100.361359 138.356323 104.137871 142.132843 104.137871 146.790161"/>
            <path id="path95" fill="#be76d3" stroke="none" d="M 184.32193 138.22052 C 184.32193 142.877853 180.545441 146.654388 175.888107 146.654388 C 171.230743 146.654388 167.454239 142.877853 167.454239 138.22052 C 167.454239 133.563187 171.230743 129.786652 175.888107 129.786652 C 180.545441 129.786652 184.32193 133.563187 184.32193 138.22052"/>
            <path id="path96" fill="#ff6466" stroke="none" d="M 85.802124 148.797729 C 85.802124 153.455063 82.025604 157.231583 77.368256 157.231583 C 72.710922 157.231583 68.934395 153.455063 68.934395 148.797729 C 68.934395 144.140381 72.710922 140.363861 77.368256 140.363861 C 82.025604 140.363861 85.802124 144.140381 85.802124 148.797729"/>
            <path id="path97" fill="#c40208" stroke="none" d="M 212.031143 126.97538 C 212.031143 131.188644 208.614273 134.605499 204.401031 134.605499 C 200.187744 134.605499 196.770905 131.188644 196.770905 126.97538 C 196.770905 122.758438 200.187744 119.341599 204.401031 119.341599 C 208.614273 119.341599 212.031143 122.758438 212.031143 126.97538"/>
            <path id="path98" fill="#be76d3" stroke="none" d="M 217.25 95.577744 C 217.25 100.235107 213.477127 104.011627 208.819778 104.011627 C 204.16246 104.011627 200.385925 100.235107 200.385925 95.577744 C 200.385925 90.916763 204.16246 87.140259 208.819778 87.140259 C 213.477127 87.140259 217.25 90.916763 217.25 95.577744"/>
            <path id="path99" fill="#ff0605" stroke="none" d="M 177.627731 167.342667 C 177.627731 172 173.854874 175.77652 169.193848 175.77652 C 164.536499 175.77652 160.763672 172 160.763672 167.342667 C 160.763672 162.681671 164.536499 158.908798 169.193848 158.908798 C 173.854874 158.908798 177.627731 162.681671 177.627731 167.342667"/>
            <path id="path100" fill="#2cdaf1" stroke="none" d="M 159.824127 47.980392 C 159.824127 52.637711 156.05127 56.414246 151.393951 56.414246 C 146.732925 56.414246 142.960068 52.637711 142.960068 47.980392 C 142.960068 43.323044 146.732925 39.542862 151.393951 39.542862 C 156.05127 39.542862 159.824127 43.323044 159.824127 47.980392"/>
            <path id="path101" fill="#00a1ca" stroke="none" d="M 187.936996 76.22908 C 187.936996 80.89006 184.160477 84.666611 179.503128 84.666611 C 174.845795 84.666611 171.06926 80.89006 171.06926 76.22908 C 171.06926 71.571732 174.845795 67.795212 179.503128 67.795212 C 184.160477 67.795212 187.936996 71.571732 187.936996 76.22908"/>
            <path id="path102" fill="#c3d788" stroke="none" d="M 129.439453 20.935547 C 129.439453 25.592865 125.662949 29.369385 121.005608 29.369385 C 116.348259 29.369385 112.571732 25.592865 112.571732 20.935547 C 112.571732 16.274506 116.348259 12.497986 121.005608 12.497986 C 125.662949 12.497986 129.439453 16.274506 129.439453 20.935547"/>
            <path id="path103" fill="#fec50e" stroke="none" d="M 62.911785 44.097443 C 62.911785 47.422546 60.214264 50.120056 56.885487 50.120056 C 53.560383 50.120056 50.862869 47.422546 50.862869 44.097443 C 50.862869 40.768677 53.560383 38.071152 56.885487 38.071152 C 60.214264 38.071152 62.911785 40.768677 62.911785 44.097443"/>
            <path id="path104" fill="#7ba206" stroke="none" d="M 88.209694 64.048035 C 88.209694 68.705383 84.433167 72.481903 79.775833 72.481903 C 75.118492 72.481903 71.341972 68.705383 71.341972 64.048035 C 71.341972 59.387009 75.118492 55.610504 79.775833 55.610504 C 84.433167 55.610504 88.209694 59.387009 88.209694 64.048035"/>
            <path id="path105" fill="#fec50e" stroke="none" d="M 81.919167 91.092941 C 81.919167 93.162857 80.241943 94.840088 78.172012 94.840088 C 76.102081 94.840088 74.421173 93.162857 74.421173 91.092941 C 74.421173 89.02301 76.102081 87.342102 78.172012 87.342102 C 80.241943 87.342102 81.919167 89.02301 81.919167 91.092941"/>
            <path id="path106" fill="#c30000" stroke="none" d="M 42.832722 115.594421 C 42.832722 117.664337 41.151825 119.341599 39.081898 119.341599 C 37.015633 119.341599 35.334724 117.664337 35.334724 115.594421 C 35.334724 113.524506 37.015633 111.843597 39.081898 111.843597 C 41.151825 111.843597 42.832722 113.524506 42.832722 115.594421"/>
            <path id="path107" fill="#ff6466" stroke="none" d="M 60.768444 154.824005 C 60.768444 156.376434 59.509602 157.635284 57.957157 157.635284 C 56.404713 157.635284 55.145874 156.376434 55.145874 154.824005 C 55.145874 153.271545 56.404713 152.009064 57.957157 152.009064 C 59.509602 152.009064 60.768444 153.271545 60.768444 154.824005"/>
            <path id="path108" fill="#597407" stroke="none" d="M 113.375488 74.489456 C 113.375488 79.14679 109.598976 82.923325 104.941628 82.923325 C 100.284286 82.923325 96.507774 79.14679 96.507774 74.489456 C 96.507774 69.832108 100.284286 66.055588 104.941628 66.055588 C 109.598976 66.055588 113.375488 69.832108 113.375488 74.489456"/>
            <path id="path109" fill="#6a0a78" stroke="none" d="M 153.669388 126.171623 C 153.669388 128.832428 151.511383 130.990448 148.846893 130.990448 C 146.186081 130.990448 144.028076 128.832428 144.028076 126.171623 C 144.028076 123.507141 146.186081 121.349136 148.846893 121.349136 C 151.511383 121.349136 153.669388 123.507141 153.669388 126.171623"/>
            <path id="path110" fill="#c40208" stroke="none" d="M 142.626068 168.212494 C 142.626068 169.875031 141.275513 171.225632 139.612946 171.225632 C 137.946716 171.225632 136.599823 169.875031 136.599823 168.212494 C 136.599823 166.546265 137.946716 165.199341 139.612946 165.199341 C 141.275513 165.199341 142.626068 166.546265 142.626068 168.212494"/>
            <path id="path111" fill="#0071ad" stroke="none" d="M 185.125717 31.109024 C 185.125717 34.584564 182.307068 37.403198 178.83519 37.403198 C 175.359589 37.403198 172.54097 34.584564 172.54097 31.109024 C 172.54097 27.633408 175.359589 24.818466 178.83519 24.818466 C 182.307068 24.818466 185.125717 27.633408 185.125717 31.109024"/>
            <path id="path112" fill="#0e1565" stroke="none" d="M 169.865479 119.407654 C 169.865479 121.51796 168.155228 123.224533 166.048584 123.224533 C 163.941956 123.224533 162.235352 121.51796 162.235352 119.407654 C 162.235352 117.301025 163.941956 115.594421 166.048584 115.594421 C 168.155228 115.594421 169.865479 117.301025 169.865479 119.407654"/>
            <path id="path113" fill="#1c286d" stroke="none" d="M 183.921921 52.931351 C 183.921921 55.041641 182.211655 56.748245 180.105011 56.748245 C 177.998398 56.748245 176.291824 55.041641 176.291824 52.931351 C 176.291824 50.824722 177.998398 49.118134 180.105011 49.118134 C 182.211655 49.118134 183.921921 50.824722 183.921921 52.931351"/>
            <path id="path114" fill="#1c286d" stroke="none" d="M 208.016052 58.759445 C 208.016052 60.866089 206.305801 62.572662 204.199158 62.572662 C 202.092514 62.572662 200.382263 60.866089 200.382263 58.759445 C 200.382263 56.649155 202.092514 54.942551 204.199158 54.942551 C 206.305801 54.942551 208.016052 56.649155 208.016052 58.759445"/>
            <path id="path115" fill="#6a0a78" stroke="none" d="M 211.862305 69.167831 C 211.862305 71.993774 209.572189 74.287582 206.742523 74.287582 C 203.91658 74.287582 201.622757 71.993774 201.622757 69.167831 C 201.622757 66.338181 203.91658 64.048035 206.742523 64.048035 C 209.572189 64.048035 211.862305 66.338181 211.862305 69.167831"/>
            <path id="path116" fill="#1c286d" stroke="none" d="M 168.929611 77.234665 C 168.929611 78.970627 167.520294 80.379929 165.78067 80.379929 C 164.044739 80.379929 162.635406 78.970627 162.635406 77.234665 C 162.635406 75.495041 164.044739 74.089417 165.78067 74.089417 C 167.520294 74.089417 168.929611 75.495041 168.929611 77.234665"/>
            <path id="path117" fill="#ff6466" stroke="none" d="M 214.842392 117.66803 C 214.842392 119.407654 213.43309 120.816956 211.697144 120.816956 C 209.95752 120.816956 208.55188 119.407654 208.55188 117.66803 C 208.55188 115.932083 209.95752 114.522781 211.697144 114.522781 C 213.43309 114.522781 214.842392 115.932083 214.842392 117.66803"/>
            <path id="path118" fill="#ff0605" stroke="none" d="M 197.174606 153.686279 C 197.174606 155.422241 195.765305 156.831543 194.025681 156.831543 C 192.289734 156.831543 190.880432 155.422241 190.880432 153.686279 C 190.880432 151.946655 192.289734 150.537354 194.025681 150.537354 C 195.765305 150.537354 197.174606 151.946655 197.174606 153.686279"/>
            <path id="path119" fill="#00a1ca" stroke="none" d="M 175.08432 21.269485 C 175.08432 23.376129 173.377762 25.086395 171.271133 25.086395 C 169.164505 25.086395 167.454239 23.376129 167.454239 21.269485 C 167.454239 19.162872 169.164505 17.452606 171.271133 17.452606 C 173.377762 17.452606 175.08432 19.162872 175.08432 21.269485"/>
        </g>
    </g>
</svg>
